HIERARCHY
ROOT Hips
{
    OFFSET 0.000000 0.000000 0.000000
    CHANNELS 6 Xposition Yposition Zposition Zrotation Xrotation Yrotation
    JOINT Spine
    {
        OFFSET -0.000000 7.236184 0.000000
        CHANNELS 3 Zrotation Xrotation Yrotation
        JOINT Spine1
        {
            OFFSET -0.000000 20.420147 0.000000
            CHANNELS 3 Zrotation Xrotation Yrotation
            JOINT Neck
            {
                OFFSET -0.000000 20.336288 1.848754
                CHANNELS 3 Zrotation Xrotation Yrotation
                JOINT Head
                {
                    OFFSET -0.000000 12.354461 -1.764923
                    CHANNELS 3 Zrotation Xrotation Yrotation
                    End Site
                    {
                        OFFSET -0.000000 22.061537 0.000000
                    }
                }
            }
            JOINT LeftShoulder
            {
                OFFSET 3.573296 18.396038 -0.314103
                CHANNELS 3 Zrotation Xrotation Yrotation
                JOINT LeftArm
                {
                    OFFSET 10.880760 0.000000 0.000000
                    CHANNELS 3 Zrotation Xrotation Yrotation
                    JOINT LeftForeArm
                    {
                        OFFSET 27.185530 0.000000 0.000000
                        CHANNELS 3 Zrotation Xrotation Yrotation
                        JOINT LeftHand
                        {
                            OFFSET 27.825975 0.000000 0.000000
                            CHANNELS 3 Zrotation Xrotation Yrotation
                            End Site
                            {
                                OFFSET 13.236923 0.000000 0.000000
                            }
                        }
                    }
                }
            }
            JOINT RightShoulder
            {
                OFFSET -3.474926 18.396038 -0.314103
                CHANNELS 3 Zrotation Xrotation Yrotation
                JOINT RightArm
                {
                    OFFSET -10.880760 0.000000 0.000000
                    CHANNELS 3 Zrotation Xrotation Yrotation
                    JOINT RightForeArm
                    {
                        OFFSET -27.185530 0.000000 0.000000
                        CHANNELS 3 Zrotation Xrotation Yrotation
                        JOINT RightHand
                        {
                            OFFSET -27.825975 0.000000 0.000000
                            CHANNELS 3 Zrotation Xrotation Yrotation
                            End Site
                            {
                                OFFSET -13.236923 0.000000 0.000000
                            }
                        }
                    }
                }
            }
        }
    }
    JOINT LeftUpLeg
    {
        OFFSET 8.824615 0.000000 0.000000
        CHANNELS 3 Zrotation Xrotation Yrotation
        JOINT LeftLeg
        {
            OFFSET -0.000000 -35.111282 0.000000
            CHANNELS 3 Zrotation Xrotation Yrotation
            JOINT LeftFoot
            {
                OFFSET -0.000000 -42.324711 0.000000
                CHANNELS 3 Zrotation Xrotation Yrotation
                JOINT LeftToeBase
                {
                    OFFSET -0.000000 -5.735999 13.236923
                    CHANNELS 3 Zrotation Xrotation Yrotation
                    End Site
                    {
                        OFFSET -0.000000 0.000000 3.529846
                    }
                }
            }
        }
    }
    JOINT RightUpLeg
    {
        OFFSET -8.824615 0.000000 0.000000
        CHANNELS 3 Zrotation Xrotation Yrotation
        JOINT RightLeg
        {
            OFFSET -0.000000 -35.111282 0.000000
            CHANNELS 3 Zrotation Xrotation Yrotation
            JOINT RightFoot
            {
                OFFSET -0.000000 -42.324711 0.000000
                CHANNELS 3 Zrotation Xrotation Yrotation
                JOINT RightToeBase
                {
                    OFFSET -0.000000 -5.735999 13.236923
                    CHANNELS 3 Zrotation Xrotation Yrotation
                    End Site
                    {
                        OFFSET -0.000000 0.000000 3.529846
                    }
                }
            }
        }
    }
}
MOTION
Frames:    10
Frame Time:    0.008333
-4.062337    83.645782    99.492020    -0.664024    -4.743317    -175.264572    -1.970180    -11.755779    0.096678    2.435588    5.963752    0.172803    2.990695    7.291307    1.288098    -2.486924    -18.828287    0.341114    -2.119404    18.012215    -2.622231    -41.933651    46.653557    -38.091610    15.670451    -7.527311    -53.151352    15.788391    0.457987    0.766452    8.649886    18.532627    -5.363284    32.072727    47.278393    40.025795    -17.797232    -12.281127    58.140800    -20.025200    -2.021992    -2.007361    4.395878    -6.587383    -1.273560    0.719803    12.615396    1.569426    -6.488661    -8.226672    -11.236060    -0.459759    -0.919024    0.510477    -3.962844    -1.190868    0.276490    1.928632    5.596588    4.207453    -1.210205    -5.765053    -12.530832    -1.881225    0.179535    2.034161    
-4.070065    83.644035    99.490532    -0.671006    -4.719068    -175.245697    -1.956777    -11.766479    0.083999    2.456101    5.985700    0.157323    3.025919    7.330934    1.375231    -2.795636    -18.834169    0.336672    -2.118988    18.029366    -2.662122    -41.876514    46.660999    -38.215958    15.711207    -7.550576    -53.105034    15.739529    0.435525    0.683230    8.679357    18.541031    -5.328915    31.919075    47.197269    40.221016    -17.885279    -12.197601    57.943596    -19.961622    -1.926440    -2.016935    4.387684    -6.556296    -1.311966    0.711220    12.599162    1.600945    -6.501321    -8.219527    -11.251165    -0.454303    -0.913142    0.504413    -3.974087    -1.156376    0.301711    1.933984    5.588837    4.175838    -1.210635    -5.771020    -12.542717    -1.881019    0.183108    2.033929    
-4.079078    83.642563    99.490364    -0.685600    -4.704284    -175.227036    -1.950565    -11.785868    0.070620    2.475974    6.007467    0.142116    3.061464    7.371775    1.463902    -3.108750    -18.840765    0.332380    -2.119043    18.046701    -2.701849    -41.822296    46.667595    -38.338577    15.753613    -7.576123    -53.061302    15.699051    0.411620    0.597060    8.709188    18.549255    -5.294575    31.766571    47.114548    40.415070    -17.973364    -12.113921    57.748791    -19.896635    -1.830501    -2.026799    4.368839    -6.535004    -1.353634    0.704061    12.582802    1.637692    -6.514627    -8.211055    -11.268156    -0.448717    -0.907007    0.498206    -3.996107    -1.132756    0.323852    1.941565    5.583582    4.146223    -1.210951    -5.777371    -12.554655    -1.880932    0.186661    2.033825    
-4.086433    83.640854    99.488129    -0.690648    -4.678522    -175.208344    -1.934915    -11.794620    0.058622    2.495631    6.029335    0.127229    3.095152    7.410955    1.549851    -3.410030    -18.846733    0.329037    -2.119693    18.063519    -2.738639    -41.777088    46.672508    -38.450600    15.796507    -7.604936    -53.025803    15.677227    0.386310    0.511401    8.737138    18.557066    -5.262396    31.626114    47.033497    40.595531    -18.056150    -12.035580    57.571701    -19.833347    -1.739440    -2.037645    4.363766    -6.501453    -1.389131    0.694948    12.565620    1.665932    -6.527651    -8.204245    -11.282750    -0.443177    -0.901019    0.492049    -4.004610    -1.095777    0.348618    1.946242    5.574629    4.115513    -1.210998    -5.783187    -12.566459    -1.881008    0.189938    2.033898    
-4.094058    83.639236    99.485786    -0.697140    -4.655140    -175.189728    -1.919980    -11.805348    0.046976    2.514205    6.051221    0.112838    3.127724    7.448828    1.636104    -3.708455    -18.851448    0.326944    -2.121287    18.080475    -2.772784    -41.742180    46.675472    -38.553253    15.842037    -7.639847    -53.000492    15.681543    0.357688    0.421923    8.764260    18.563965    -5.231696    31.495716    46.951614    40.765022    -18.135946    -11.961699    57.411369    -19.769850    -1.651066    -2.050878    4.356900    -6.469622    -1.423814    0.686101    12.547598    1.694033    -6.541447    -8.197148    -11.298079    -0.437397    -0.895037    0.485627    -4.015124    -1.060984    0.371638    1.951085    5.565766    4.085875    -1.211480    -5.789046    -12.577858    -1.881299    0.192944    2.034204    
-4.101452    83.637657    99.482849    -0.702729    -4.631924    -175.171432    -1.903628    -11.815186    0.036450    2.531222    6.072501    0.099126    3.157769    7.484104    1.720692    -3.995530    -18.854485    0.326686    -2.123530    18.097254    -2.802965    -41.721134    46.676235    -38.641811    15.889696    -7.681918    -52.989147    15.719769    0.325214    0.329867    8.789158    18.569853    -5.203774    31.380959    46.870907    40.917572    -18.210320    -11.895697    57.276283    -19.707893    -1.568163    -2.067316    4.351684    -6.436988    -1.455839    0.676928    12.528537    1.719676    -6.555676    -8.190155    -11.313303    -0.431417    -0.889157    0.478982    -4.024381    -1.025737    0.393170    1.955490    5.556272    4.057602    -1.211214    -5.794851    -12.588639    -1.881849    0.195603    2.034792    
-4.108538    83.636055    99.479004    -0.706380    -4.607627    -175.153198    -1.884299    -11.823190    0.026713    2.546404    6.093233    0.086615    3.185560    7.516784    1.804455    -4.273200    -18.855494    0.328520    -2.126627    18.114017    -2.828772    -41.715450    46.675072    -38.715294    15.940725    -7.733146    -52.994419    15.799433    0.287130    0.233361    8.811897    18.574522    -5.178971    31.282631    46.790718    41.052635    -18.279337    -11.838113    57.169033    -19.647085    -1.490634    -2.087602    4.349656    -6.401992    -1.485110    0.667087    12.508179    1.742272    -6.570709    -8.183537    -11.328272    -0.425284    -0.882907    0.472168    -4.030861    -0.988490    0.413381    1.958906    5.545875    4.030119    -1.210788    -5.800676    -12.598556    -1.882695    0.197807    2.035700    
-4.115146    83.634407    99.474258    -0.707798    -4.582502    -175.135330    -1.861807    -11.828912    0.018793    2.559082    6.112767    0.074973    3.210529    7.546596    1.885828    -4.535614    -18.854914    0.332758    -2.130115    18.130367    -2.849422    -41.726295    46.672394    -38.771336    15.994080    -7.794079    -53.018444    15.924165    0.243520    0.133652    8.831685    18.577436    -5.157755    31.204327    46.713005    41.166100    -18.341642    -11.790978    57.094116    -19.588585    -1.420106    -2.112019    4.351201    -6.365011    -1.511076    0.656570    12.486679    1.762052    -6.586459    -8.177169    -11.343383    -0.418852    -0.877065    0.465022    -4.034290    -0.949704    0.432238    1.961525    5.534836    4.004335    -1.210151    -5.806520    -12.608143    -1.883764    0.199512    2.036852    
-4.121336    83.632698    99.468575    -0.707130    -4.556766    -175.117554    -1.835969    -11.832461    0.012200    2.568977    6.130668    0.064779    3.233214    7.573926    1.965492    -4.784934    -18.852812    0.339367    -2.133752    18.146715    -2.864908    -41.753613    46.668835    -38.810150    16.050552    -7.866447    -53.063251    16.098904    0.192845    0.029811    8.848382    18.578552    -5.140537    31.145693    46.637875    41.258823    -18.397842    -11.754793    57.052399    -19.531509    -1.356415    -2.141256    4.356143    -6.326118    -1.534384    0.645303    12.463792    1.779218    -6.603116    -8.171023    -11.358469    -0.412157    -0.871133    0.457583    -4.034885    -0.909598    0.449770    1.963379    5.523310    3.980046    -1.209080    -5.812532    -12.617478    -1.885052    0.200443    2.038242    
-4.127110    83.630966    99.461952    -0.704563    -4.530490    -175.099716    -1.806617    -11.833550    0.007089    2.575559    6.146383    0.056030    3.253449    7.598526    2.043611    -5.020577    -18.848482    0.348711    -2.137197    18.163239    -2.874885    -41.797363    46.665051    -38.831841    16.110394    -7.951660    -53.130779    16.327751    0.134211    -0.078471    8.861792    18.577576    -5.127428    31.107353    46.565895    41.330681    -18.448364    -11.729988    57.045193    -19.475437    -1.299351    -2.175874    4.364246    -6.285400    -1.555691    0.633204    12.439427    1.795060    -6.620914    -8.164937    -11.374296    -0.405160    -0.865431    0.449810    -4.032763    -0.868543    0.465959    1.964387    5.511891    3.956838    -1.208017    -5.818909    -12.626331    -1.886477    0.200809    2.039781    
